<?xml version="1.0" encoding="UTF-8" standalone="no"?>
<!DOCTYPE svg PUBLIC "-//W3C//DTD SVG 20010904//EN"
              "http://www.w3.org/TR/2001/REC-SVG-20010904/DTD/svg10.dtd">

<svg xmlns="http://www.w3.org/2000/svg"
     width="34.574mm" height="33.8684mm"
     viewBox="0 0 196 192">
  <path id="Selection"
        fill="#f6edd3" stroke="none" stroke-width="1"
        d="M 93.00,18.42
           C 100.94,17.46 112.29,19.22 120.00,21.43
             172.82,36.56 190.88,101.45 155.08,144.00
             149.43,150.71 142.75,156.10 135.00,160.22
             127.49,164.21 119.47,167.45 111.00,168.70
             87.22,172.21 62.68,165.83 45.09,148.83
             14.38,119.15 14.52,67.43 46.09,38.43
             56.42,28.93 70.15,21.93 84.00,19.46
             84.00,19.46 93.00,18.42 93.00,18.42 Z
           M 89.00,24.29
           C 83.29,25.16 77.40,26.35 72.00,28.46
             46.83,38.31 28.04,63.70 28.00,91.00
             28.00,91.00 28.00,98.00 28.00,98.00
             28.41,132.44 59.56,163.59 94.00,164.00
             106.93,164.15 116.04,163.35 128.00,157.68
             172.43,136.64 182.10,77.15 146.96,43.09
             131.48,28.08 110.06,22.32 89.00,24.29 Z
           M 91.00,93.00
           C 90.13,91.31 89.21,90.10 89.45,88.04
             90.11,82.39 102.04,80.20 100.00,90.00
             96.67,88.66 96.61,88.53 96.00,85.00
             90.59,88.30 93.52,90.07 96.00,94.00
             84.17,96.56 92.13,106.06 101.00,104.79
             108.48,103.71 110.01,98.05 105.85,96.49
             103.64,95.66 99.34,97.39 97.00,98.00
             97.00,98.00 101.00,102.00 101.00,102.00
             101.00,102.00 100.00,98.00 100.00,98.00
             106.94,97.41 105.42,101.86 101.94,102.67
             98.17,103.55 95.01,101.02 96.08,97.05
             97.33,92.38 109.34,89.97 114.00,88.00
             114.00,88.00 114.00,86.00 114.00,86.00
             114.00,86.00 111.00,85.00 111.00,85.00
             109.60,88.54 108.61,88.29 105.00,88.00
             108.40,77.75 119.15,86.79 112.69,92.41
             111.42,93.51 110.47,93.55 109.00,94.00
             109.72,96.56 110.60,99.29 110.11,101.98
             108.13,112.69 83.28,111.33 85.82,99.02
             86.49,95.77 88.39,94.57 91.00,93.00 Z
           M 45.00,84.00
           C 45.00,84.00 53.59,85.02 53.59,85.02
             53.59,85.02 62.00,99.00 62.00,99.00
             63.30,91.82 65.53,81.25 75.00,85.00
             71.34,89.97 72.66,103.46 75.00,109.00
             75.00,109.00 64.00,108.00 64.00,108.00
             68.48,103.46 67.65,94.79 66.00,89.00
             65.08,94.10 61.12,104.96 58.00,109.00
             58.00,109.00 49.00,88.00 49.00,88.00
             49.00,95.70 47.57,102.44 52.00,109.00
             52.00,109.00 45.00,109.00 45.00,109.00
             48.89,101.99 49.94,90.74 45.00,84.00 Z
           M 125.00,84.00
           C 130.83,84.00 141.23,82.89 145.78,86.65
             151.20,91.14 151.08,100.83 145.78,105.36
             141.11,109.36 130.52,110.19 125.00,108.00
             125.00,108.00 127.43,104.89 127.43,104.89
             127.43,104.89 127.43,88.09 127.43,88.09
             127.43,88.09 125.00,84.00 125.00,84.00 Z
           M 135.43,85.59
           C 134.71,86.21 134.52,85.75 133.74,87.29
             132.74,89.26 132.74,101.52 133.23,103.95
             133.96,107.64 136.57,108.53 139.78,106.68
             145.96,103.13 146.12,83.93 135.43,85.59 Z" />
</svg>
